<svg width="54" height="51" viewBox="0 0 54 51" fill="none" xmlns="http://www.w3.org/2000/svg">
<g filter="url(#filter0_i_1271_2756)">
<path d="M41.517 0.00657777H12.48C10.899 0.00657777 9.537 0.0065784 8.412 0.0965784C7.227 0.195578 6.045 0.408578 4.911 0.987578C3.21762 1.85043 1.84085 3.22719 0.978 4.92058C0.713721 5.49398 0.541603 6.10551 0.468 6.73258C0.39 7.25458 0.33 7.87258 0.282 8.52358C0.183 9.83158 0.12 11.4486 0.0809999 13.0896C-1.50874e-07 16.3776 0 19.9176 0 21.5976V21.6066C0 22.4022 0.31607 23.1653 0.87868 23.7279C1.44129 24.2905 2.20435 24.6066 3 24.6066C3.79565 24.6066 4.55871 24.2905 5.12132 23.7279C5.68393 23.1653 6 22.4022 6 21.6066C6 20.7666 6 19.4826 6.009 18.0066H48V32.4066C48 34.1376 48 35.2536 47.928 36.1026C47.862 36.9186 47.748 37.2186 47.673 37.3686C47.3854 37.933 46.9265 38.392 46.362 38.6796C46.212 38.7546 45.912 38.8686 45.096 38.9346C44.25 39.0066 43.131 39.0066 41.4 39.0066H27C26.2044 39.0066 25.4413 39.3226 24.8787 39.8853C24.3161 40.4479 24 41.2109 24 42.0066C24 42.8022 24.3161 43.5653 24.8787 44.1279C25.4413 44.6905 26.2044 45.0066 27 45.0066H41.517C43.098 45.0066 44.463 45.0066 45.585 44.9166C46.77 44.8176 47.952 44.6046 49.086 44.0256C50.7794 43.1627 52.1562 41.786 53.019 40.0926C53.598 38.9586 53.811 37.7766 53.907 36.5916C54 35.4666 54 34.1016 54 32.5236V12.4866C54 10.9056 54 9.54358 53.91 8.41858C53.811 7.23358 53.598 6.05158 53.019 4.91758C52.1562 3.22419 50.7794 1.84743 49.086 0.984578C47.952 0.405578 46.77 0.192578 45.585 0.0965784C44.2296 0.015407 42.8716 -0.014615 41.514 0.00657777M47.994 12.0066H6.12C6.156 10.8696 6.207 9.82558 6.27 8.96758C6.3068 8.46275 6.36183 7.95943 6.435 7.45858C6.724 6.97827 7.14179 6.58854 7.641 6.33358C7.791 6.25858 8.091 6.14458 8.907 6.07858C9.75 6.00658 10.869 6.00658 12.6 6.00658H41.4C43.131 6.00658 44.247 6.00658 45.096 6.07858C45.912 6.14458 46.212 6.25858 46.362 6.33358C46.9265 6.62119 47.3854 7.08012 47.673 7.64458C47.748 7.79458 47.862 8.09458 47.928 8.91058C47.988 9.65758 48 10.6116 48 12.0066" fill="#466FD8"/>
<path d="M18.9398 35.6377L16.7798 37.7377C18.1358 40.2967 17.7098 43.5127 15.4928 45.6607L12.0488 49.0027C10.7035 50.2882 8.91446 51.0056 7.05377 51.0056C5.19307 51.0056 3.40401 50.2882 2.05876 49.0027C1.40805 48.3809 0.890132 47.6336 0.536283 46.806C0.182434 45.9784 0 45.0877 0 44.1877C0 43.2876 0.182434 42.3969 0.536283 41.5693C0.890132 40.7418 1.40805 39.9945 2.05876 39.3727L4.21876 37.2787C3.54142 35.9977 3.30032 34.5308 3.53204 33.1004C3.76376 31.6701 4.45565 30.3543 5.50276 29.3527L8.94676 26.0107C10.292 24.7252 12.0811 24.0078 13.9418 24.0078C15.8025 24.0078 17.5915 24.7252 18.9368 26.0107C19.5875 26.6325 20.1054 27.3798 20.4592 28.2073C20.8131 29.0349 20.9955 29.9256 20.9955 30.8257C20.9955 31.7257 20.8131 32.6164 20.4592 33.444C20.1054 34.2716 19.5875 35.0189 18.9368 35.6407M16.9838 33.8107C17.386 33.4251 17.706 32.9622 17.9246 32.4497C18.1432 31.9372 18.2559 31.3858 18.2559 30.8287C18.2559 30.2715 18.1432 29.7201 17.9246 29.2077C17.706 28.6952 17.386 28.2323 16.9838 27.8467C16.1653 27.0611 15.0748 26.6223 13.9403 26.6223C12.8058 26.6223 11.7152 27.0611 10.8968 27.8467L7.44977 31.1887C6.90456 31.713 6.51341 32.3766 6.31878 33.1075C6.12415 33.8384 6.13349 34.6087 6.34577 35.3347C7.63925 34.4354 9.19017 33.9812 10.7644 34.0407C12.3387 34.1003 13.8509 34.6703 15.0728 35.6647L16.9838 33.8107ZM13.1198 37.5067C12.3608 36.9454 11.4417 36.6426 10.4978 36.6426C9.55381 36.6426 8.63476 36.9454 7.87576 37.5067C8.63476 38.0679 9.55381 38.3708 10.4978 38.3708C11.4417 38.3708 12.3608 38.0679 13.1198 37.5067ZM4.00876 41.2057C3.60658 41.5913 3.28654 42.0542 3.06792 42.5667C2.84929 43.0791 2.73658 43.6305 2.73658 44.1877C2.73658 44.7448 2.84929 45.2962 3.06792 45.8087C3.28654 46.3212 3.60658 46.7841 4.00876 47.1697C4.82722 47.9553 5.91777 48.394 7.05226 48.394C8.18676 48.394 9.27731 47.9553 10.0958 47.1697L13.5428 43.8277C14.6978 42.7087 15.0668 41.1097 14.6468 39.6817C13.3533 40.581 11.8024 41.0352 10.2281 40.9756C8.65383 40.9161 7.14164 40.3461 5.91976 39.3517L4.00876 41.2057ZM32.9978 27.0067C32.2021 27.0067 31.4391 27.3228 30.8764 27.8854C30.3138 28.448 29.9978 29.211 29.9978 30.0067C29.9978 30.8023 30.3138 31.5654 30.8764 32.128C31.4391 32.6906 32.2021 33.0067 32.9978 33.0067H41.9978C42.7934 33.0067 43.5565 32.6906 44.1191 32.128C44.6817 31.5654 44.9978 30.8023 44.9978 30.0067C44.9978 29.211 44.6817 28.448 44.1191 27.8854C43.5565 27.3228 42.7934 27.0067 41.9978 27.0067H32.9978Z" fill="#466FD8"/>
</g>
<defs>
<filter id="filter0_i_1271_2756" x="0" y="0" width="54" height="55.0056" filterUnits="userSpaceOnUse" color-interpolation-filters="sRGB">
<feFlood flood-opacity="0" result="BackgroundImageFix"/>
<feBlend mode="normal" in="SourceGraphic" in2="BackgroundImageFix" result="shape"/>
<feColorMatrix in="SourceAlpha" type="matrix" values="0 0 0 0 0 0 0 0 0 0 0 0 0 0 0 0 0 0 127 0" result="hardAlpha"/>
<feOffset dy="4"/>
<feGaussianBlur stdDeviation="2"/>
<feComposite in2="hardAlpha" operator="arithmetic" k2="-1" k3="1"/>
<feColorMatrix type="matrix" values="0 0 0 0 0 0 0 0 0 0 0 0 0 0 0 0 0 0 0.25 0"/>
<feBlend mode="normal" in2="shape" result="effect1_innerShadow_1271_2756"/>
</filter>
</defs>
</svg>
